<svg width="298" height="71" viewBox="0 0 298 71" fill="none" xmlns="http://www.w3.org/2000/svg">
<path d="M245.803 41.1515C245.803 47.474 240.637 48.7753 233.27 48.7753H218.962V22.4041H231.893C239.191 22.4041 244.052 24.1391 244.052 29.88C244.052 32.5089 242.862 34.152 240.657 34.9374C243.273 35.7326 245.803 37.5762 245.803 41.1515ZM231.344 27.9675H226.799V33.0971H231.344C233.875 33.0971 236.185 32.8441 236.185 30.7114C236.191 28.4013 234.098 27.9675 231.344 27.9675ZM237.956 40.6816C237.956 38.6244 235.932 38.0822 232.826 38.0822H226.799V43.1757H233.483C236.372 43.1757 237.962 42.742 237.962 40.6816H237.956Z" fill="#F2F2F2"/>
<path d="M255.369 27.9675V33.6755H265.665V38.6967H255.369V48.7753H247.482V22.4041H270.485V27.9675H255.369Z" fill="#F2F2F2"/>
<path d="M298 27.9675H289.042V48.7753H281.201V27.9675H272.207V22.4041H298V27.9675Z" fill="#F2F2F2"/>
<path d="M63.1464 21.6877V48.6965C63.1465 50.1326 62.7685 51.5435 62.0503 52.7872C61.3321 54.0309 60.2991 55.0636 59.0552 55.7814L56.2028 57.4244L49.9132 61.0392L35.6645 69.2545C34.4207 69.973 33.0096 70.3513 31.5732 70.3513C30.1368 70.3513 28.7258 69.973 27.482 69.2545L13.2333 61.0392L6.90089 57.408L4.0781 55.7814C2.83662 55.0619 1.80626 54.0285 1.09045 52.7849C0.374636 51.5414 -0.0014294 50.1313 4.08278e-06 48.6965V21.6877C0.000325562 20.2512 0.378525 18.84 1.09664 17.5958C1.81475 16.3517 2.84751 15.3183 4.09125 14.5995L6.90089 12.986L7.28866 12.7625L17.6531 23.1369C19.2352 24.7182 20.4901 26.5958 21.3464 28.6623C22.2026 30.7288 22.6433 32.9437 22.6433 35.1806C22.6433 37.4174 22.2026 39.6324 21.3464 41.6989C20.4901 43.7654 19.2352 45.6429 17.6531 47.2243C17.5258 47.3491 17.4251 47.4985 17.3573 47.6634C17.2895 47.8283 17.256 48.0053 17.2587 48.1836C17.2615 48.3619 17.3005 48.5378 17.3734 48.7005C17.4463 48.8632 17.5515 49.0094 17.6827 49.1302C17.9463 49.364 18.2899 49.4869 18.642 49.4735C18.994 49.46 19.3273 49.3111 19.5722 49.0579C22.7634 45.8895 27.0779 44.1114 31.5749 44.1114C36.0718 44.1114 40.3863 45.8895 43.5775 49.0579C43.8227 49.3095 44.1551 49.4572 44.5062 49.4706C44.8572 49.4841 45.2 49.3622 45.4637 49.1302C45.5949 49.0094 45.7001 48.8632 45.773 48.7005C45.8459 48.5378 45.8849 48.3619 45.8877 48.1836C45.8905 48.0053 45.8569 47.8283 45.7891 47.6634C45.7213 47.4985 45.6207 47.3491 45.4933 47.2243C43.9117 45.6427 42.657 43.7651 41.8011 41.6986C40.9451 39.6321 40.5045 37.4173 40.5045 35.1806C40.5045 32.9438 40.9451 30.729 41.8011 28.6625C42.657 26.5961 43.9117 24.7185 45.4933 23.1369C45.6367 22.9968 45.7461 22.8257 45.8132 22.6369C45.8803 22.448 45.9033 22.2462 45.8805 22.0471C45.8576 21.8479 45.7896 21.6566 45.6815 21.4878C45.5733 21.319 45.428 21.1772 45.2567 21.0732C44.9955 20.9153 44.6884 20.8507 44.3857 20.8901C44.083 20.9295 43.8027 21.0705 43.5906 21.2901C40.3942 24.4722 36.0659 26.2562 31.5556 26.2507C27.0453 26.2451 22.7214 24.4504 19.5328 21.2605L9.67439 11.4021L13.2891 9.30881L27.482 1.09675C28.7258 0.378269 30.1368 0 31.5732 0C33.0096 0 34.4207 0.378269 35.6645 1.09675L49.877 9.3121L56.2225 12.9761L59.0552 14.6192C60.296 15.3364 61.3269 16.3666 62.0449 17.607C62.7628 18.8474 63.1427 20.2545 63.1464 21.6877Z" fill="#F2F2F2"/>
<path d="M80.4053 35.2627C80.4053 24.9344 87.7728 21.6088 96.5073 21.6088C102.324 21.6088 105.61 23.5805 105.61 23.5805L104.312 29.1439C101.867 27.9974 99.2073 27.3814 96.5073 27.3366C91.0162 27.3366 88.3084 29.6862 88.3084 35.2463C88.3084 40.8064 91.0556 42.9786 96.5073 42.9786C101.131 42.9786 103.661 41.605 104.818 40.9182L105.827 46.6985C102.914 48.0748 99.729 48.779 96.5073 48.7589C87.7005 48.7753 80.4053 45.8835 80.4053 35.2627Z" fill="#F2F2F2"/>
<path d="M107.532 38.8413C107.532 32.3381 111.577 28.5097 119.849 28.5097C128.12 28.5097 132.277 32.3381 132.277 38.8413C132.277 45.0521 128.084 48.7392 119.849 48.7392C111.614 48.7392 107.532 45.0521 107.532 38.8413ZM124.653 38.7329C124.653 34.3985 122.74 32.8178 119.849 32.8178C116.957 32.8178 115.153 34.4083 115.153 38.7329C115.153 43.0049 116.996 44.4015 119.849 44.4015C122.701 44.4015 124.653 43.0476 124.653 38.7329Z" fill="#F2F2F2"/>
<path d="M169.085 36.4918V48.3416H161.786V36.9979C161.786 34.8651 161.063 33.2418 158.717 33.2418C155.901 33.2418 155.323 36.1993 155.323 38.171V48.358H148.494V36.9979C148.494 34.8651 147.771 33.2418 145.569 33.2418C143.111 33.2418 142.208 35.4435 142.208 37.6124V48.3777H134.912V28.8712H138.856L140.946 30.8889C142.569 29.4102 144.889 28.6511 147.482 28.6511C150.439 28.6511 152.503 29.4463 153.804 30.9514C155.286 29.4364 157.452 28.6511 160.127 28.6511C167.82 28.6543 169.085 32.5911 169.085 36.4918Z" fill="#F2F2F2"/>
<path d="M195.091 39.9586H179.124C179.811 42.4166 182.124 43.4288 185.194 43.4288C187.977 43.4288 190.938 42.3443 191.372 42.1998L193.554 45.8835C191.28 47.6547 187.415 48.7392 183.514 48.7392C175.746 48.7392 171.356 45.0521 171.356 38.7329C171.356 32.1935 175.762 28.5097 183.514 28.5097C190.557 28.5097 194.963 32.085 195.108 37.8292L195.091 39.9586ZM179.124 36.5279H187.997C187.527 34.4675 186.025 33.4225 183.725 33.4225C181.424 33.4225 179.703 34.175 179.124 36.5279Z" fill="#F2F2F2"/>
<path d="M215.104 47.727C213.622 48.2692 211.742 48.7391 208.565 48.7391C199.281 48.7391 199.281 43.1757 199.281 38.8413V32.9525H195.923V28.8711H199.281V23.127H206.613V26.8469L206.146 28.8711H213.007V32.9525H206.613V38.8413C206.613 41.549 206.902 43.6817 210.733 43.6817C212.043 43.6329 213.325 43.2963 214.489 42.6959L215.104 47.727Z" fill="#F2F2F2"/>
</svg>
